<svg width="42" height="42" viewBox="0 0 42 42" fill="none" xmlns="http://www.w3.org/2000/svg">
<path d="M37.7002 11.3715C38.5 14.49 38.5 21 38.5 21C38.5 21 38.5 27.51 37.7002 30.6285C37.2557 32.3522 35.9555 33.7085 34.3088 34.167C31.318 35 21 35 21 35C21 35 10.6873 35 7.69125 34.167C6.0375 33.7015 4.739 32.347 4.29975 30.6285C3.5 27.51 3.5 21 3.5 21C3.5 21 3.5 14.49 4.29975 11.3715C4.74425 9.64775 6.0445 8.2915 7.69125 7.833C10.6873 7 21 7 21 7C21 7 31.318 7 34.3088 7.833C35.9625 8.2985 37.261 9.653 37.7002 11.3715ZM17.5 27.125L28 21L17.5 14.875V27.125Z" fill="#DE1A1B"/>
</svg>
